<svg xmlns="http://www.w3.org/2000/svg" xmlns:xlink="http://www.w3.org/1999/xlink" version="1.1" data-diagram-type="CLASS" style="width:204px;height:210px;background:#FFFFFF;" width="204px" height="210px" viewBox="0 0 204 210" zoomAndPan="magnify" preserveAspectRatio="none" contentStyleType="text/css"><?plantuml 1.2026.9beta4?><defs/><g font-family="sans-serif" lengthAdjust="spacing"><!--class Animal--><g class="entity" data-qualified-name="Animal" id="ent0001" data-source-line="1"><rect x="54.9" y="131.29" width="80.446" height="64.297" fill="#F1F1F1" style="stroke:#181818;stroke-width:0.5;" rx="2.5" ry="2.5"/><ellipse cx="69.9" cy="147.29" rx="11" ry="11" fill="#ADD1B2" style="stroke:#181818;stroke-width:1;"/><path d="M72.869,152.931 Q72.291,153.228 71.65,153.368 Q71.009,153.524 70.306,153.524 Q67.806,153.524 66.478,151.884 Q65.166,150.228 65.166,147.103 Q65.166,143.978 66.478,142.321 Q67.806,140.665 70.306,140.665 Q71.009,140.665 71.65,140.821 Q72.306,140.978 72.869,141.274 L72.869,143.993 Q72.244,143.415 71.65,143.149 Q71.056,142.868 70.431,142.868 Q69.088,142.868 68.4,143.946 Q67.713,145.009 67.713,147.103 Q67.713,149.196 68.4,150.274 Q69.088,151.337 70.431,151.337 Q71.056,151.337 71.65,151.071 Q72.244,150.79 72.869,150.212 L72.869,152.931 Z " fill="#000"/><text x="83.9" y="152.137" fill="#000" font-size="14" textLength="48.446">Animal</text><line x1="55.9" y1="163.29" x2="134.346" y2="163.29" style="stroke:#181818;stroke-width:0.5;"/><line x1="55.9" y1="171.29" x2="134.346" y2="171.29" style="stroke:#181818;stroke-width:0.5;"/><g data-visibility-modifier="PUBLIC_METHOD"><ellipse cx="65.9" cy="184.938" rx="3" ry="3" fill="#84BE84" style="stroke:#038048;stroke-width:1;"/></g><text x="74.9" y="188.285" fill="#000" font-size="14" textLength="33.605">eat()</text></g><!--class Dog--><g class="entity" data-qualified-name="Dog" id="ent0002" data-source-line="5"><rect x="7" y="7" width="68.253" height="64.297" fill="#F1F1F1" style="stroke:#181818;stroke-width:0.5;" rx="2.5" ry="2.5"/><ellipse cx="25.609" cy="23" rx="11" ry="11" fill="#ADD1B2" style="stroke:#181818;stroke-width:1;"/><path d="M28.578,28.641 Q28,28.938 27.359,29.078 Q26.719,29.234 26.015,29.234 Q23.515,29.234 22.187,27.594 Q20.875,25.938 20.875,22.813 Q20.875,19.688 22.187,18.031 Q23.515,16.375 26.015,16.375 Q26.719,16.375 27.359,16.531 Q28.015,16.688 28.578,16.984 L28.578,19.703 Q27.953,19.125 27.359,18.859 Q26.765,18.578 26.14,18.578 Q24.797,18.578 24.109,19.656 Q23.422,20.719 23.422,22.813 Q23.422,24.906 24.109,25.984 Q24.797,27.047 26.14,27.047 Q26.765,27.047 27.359,26.781 Q27.953,26.5 28.578,25.922 L28.578,28.641 Z " fill="#000"/><text x="40.411" y="27.847" fill="#000" font-size="14" textLength="28.232">Dog</text><line x1="8" y1="39" x2="74.253" y2="39" style="stroke:#181818;stroke-width:0.5;"/><line x1="8" y1="47" x2="74.253" y2="47" style="stroke:#181818;stroke-width:0.5;"/><g data-visibility-modifier="PUBLIC_METHOD"><ellipse cx="18" cy="60.648" rx="3" ry="3" fill="#84BE84" style="stroke:#038048;stroke-width:1;"/></g><text x="27" y="63.995" fill="#000" font-size="14" textLength="42.253">bark()</text></g><!--class Cat--><g class="entity" data-qualified-name="Cat" id="ent0003" data-source-line="9"><rect x="110.53" y="7" width="79.19" height="64.297" fill="#F1F1F1" style="stroke:#181818;stroke-width:0.5;" rx="2.5" ry="2.5"/><ellipse cx="136.036" cy="23" rx="11" ry="11" fill="#ADD1B2" style="stroke:#181818;stroke-width:1;"/><path d="M139.005,28.641 Q138.427,28.938 137.786,29.078 Q137.145,29.234 136.442,29.234 Q133.942,29.234 132.614,27.594 Q131.302,25.938 131.302,22.813 Q131.302,19.688 132.614,18.031 Q133.942,16.375 136.442,16.375 Q137.145,16.375 137.786,16.531 Q138.442,16.688 139.005,16.984 L139.005,19.703 Q138.38,19.125 137.786,18.859 Q137.192,18.578 136.567,18.578 Q135.224,18.578 134.536,19.656 Q133.849,20.719 133.849,22.813 Q133.849,24.906 134.536,25.984 Q135.224,27.047 136.567,27.047 Q137.192,27.047 137.786,26.781 Q138.38,26.5 139.005,25.922 L139.005,28.641 Z " fill="#000"/><text x="152.371" y="27.847" fill="#000" font-size="14" textLength="23.844">Cat</text><line x1="111.53" y1="39" x2="188.72" y2="39" style="stroke:#181818;stroke-width:0.5;"/><line x1="111.53" y1="47" x2="188.72" y2="47" style="stroke:#181818;stroke-width:0.5;"/><g data-visibility-modifier="PUBLIC_METHOD"><ellipse cx="121.53" cy="60.648" rx="3" ry="3" fill="#84BE84" style="stroke:#038048;stroke-width:1;"/></g><text x="130.53" y="63.995" fill="#000" font-size="14" textLength="53.19">meow()</text></g><!--link Dog to Animal--><g class="link" data-entity-1="ent0002" data-entity-2="ent0001" id="lnk4" data-source-line="13" data-link-type="extension"><path d="M55.03,71.64 C63.1,89.9 65.935,96.346 73.995,114.586" style="stroke:#181818;stroke-width:1;" fill="none" id="Dog-to-Animal" codeLine="13"/><polygon points="81.27,131.05,79.483,112.161,68.507,117.011,81.27,131.05" fill="none" style="stroke:#181818;stroke-width:1;stroke-linejoin:miter;stroke-miterlimit:10;"/></g><!--link Cat to Animal--><g class="link" data-entity-1="ent0003" data-entity-2="ent0001" id="lnk5" data-source-line="14" data-link-type="extension"><path d="M135.96,71.64 C127.75,89.9 124.838,96.396 116.628,114.636" style="stroke:#181818;stroke-width:1;" fill="none" id="Cat-to-Animal" codeLine="14"/><polygon points="109.24,131.05,122.099,117.099,111.157,112.173,109.24,131.05" fill="none" style="stroke:#181818;stroke-width:1;stroke-linejoin:miter;stroke-miterlimit:10;"/></g><?plantuml-src Iyv9B2vMSCpBp4tCKQZcKW02xTJ44WrDhbekhcImf4j-EamcAR4e6rdAER449fMRcbyEaGAfrzMjiOEQoWLIXCG70000?></g></svg>