<svg xmlns="http://www.w3.org/2000/svg" xmlns:xlink="http://www.w3.org/1999/xlink" version="1.1" data-diagram-type="CLASS" style="width:446px;height:259px;background:#FFFFFF;" width="446px" height="259px" viewBox="0 0 446 259" zoomAndPan="magnify" preserveAspectRatio="none" contentStyleType="text/css"><?plantuml 1.2026.9beta4?><defs/><g font-family="sans-serif" lengthAdjust="spacing"><!--class Animal--><g class="entity" data-qualified-name="Animal" id="ent0001" data-source-line="1"><rect x="159" y="7" width="117.198" height="80.594" fill="#F1F1F1" style="stroke:#181818;stroke-width:0.5;" rx="2.5" ry="2.5"/><ellipse cx="190.538" cy="23" rx="11" ry="11" fill="#A9DCDF" style="stroke:#181818;stroke-width:1;"/><path d="M190.648,18.344 L189.492,23.422 L191.82,23.422 L190.648,18.344 Z M189.163,16.109 L192.148,16.109 L195.507,28.5 L193.054,28.5 L192.288,25.438 L189.007,25.438 L188.257,28.5 L185.82,28.5 L189.163,16.109 Z " fill="#000"/><text x="208.214" y="27.847" fill="#000" font-size="14" textLength="48.446" font-style="italic">Animal</text><line x1="160" y1="39" x2="275.198" y2="39" style="stroke:#181818;stroke-width:0.5;"/><g data-visibility-modifier="PUBLIC_FIELD"><ellipse cx="170" cy="52.648" rx="3" ry="3" fill="none" style="stroke:#038048;stroke-width:1;"/></g><text x="179" y="55.995" fill="#000" font-size="14" textLength="89.059">name: string</text><line x1="160" y1="63.297" x2="275.198" y2="63.297" style="stroke:#181818;stroke-width:0.5;"/><g data-visibility-modifier="PUBLIC_METHOD"><ellipse cx="170" cy="76.945" rx="3" ry="3" fill="#84BE84" style="stroke:#038048;stroke-width:1;"/></g><text x="179" y="80.292" fill="#000" font-size="14" textLength="91.198" font-style="italic">speak(): void</text></g><!--class Dog--><g class="entity" data-qualified-name="Dog" id="ent0002" data-source-line="6"><rect x="7" y="155.74" width="117.198" height="80.594" fill="#F1F1F1" style="stroke:#181818;stroke-width:0.5;" rx="2.5" ry="2.5"/><ellipse cx="47.635" cy="171.74" rx="11" ry="11" fill="#ADD1B2" style="stroke:#181818;stroke-width:1;"/><path d="M50.603,177.381 Q50.025,177.677 49.385,177.818 Q48.744,177.974 48.041,177.974 Q45.541,177.974 44.213,176.334 Q42.9,174.677 42.9,171.552 Q42.9,168.427 44.213,166.771 Q45.541,165.115 48.041,165.115 Q48.744,165.115 49.385,165.271 Q50.041,165.427 50.603,165.724 L50.603,168.443 Q49.978,167.865 49.385,167.599 Q48.791,167.318 48.166,167.318 Q46.822,167.318 46.135,168.396 Q45.447,169.459 45.447,171.552 Q45.447,173.646 46.135,174.724 Q46.822,175.787 48.166,175.787 Q48.791,175.787 49.385,175.521 Q49.978,175.24 50.603,174.662 L50.603,177.381 Z " fill="#000"/><text x="67.331" y="176.587" fill="#000" font-size="14" textLength="28.232">Dog</text><line x1="8" y1="187.74" x2="123.198" y2="187.74" style="stroke:#181818;stroke-width:0.5;"/><g data-visibility-modifier="PUBLIC_FIELD"><ellipse cx="18" cy="201.388" rx="3" ry="3" fill="none" style="stroke:#038048;stroke-width:1;"/></g><text x="27" y="204.735" fill="#000" font-size="14" textLength="90.111">breed: string</text><line x1="8" y1="212.037" x2="123.198" y2="212.037" style="stroke:#181818;stroke-width:0.5;"/><g data-visibility-modifier="PUBLIC_METHOD"><ellipse cx="18" cy="225.685" rx="3" ry="3" fill="#84BE84" style="stroke:#038048;stroke-width:1;"/></g><text x="27" y="229.032" fill="#000" font-size="14" textLength="91.198">speak(): void</text></g><!--class Cat--><g class="entity" data-qualified-name="Cat" id="ent0004" data-source-line="11"><rect x="159" y="155.74" width="117.198" height="80.594" fill="#F1F1F1" style="stroke:#181818;stroke-width:0.5;" rx="2.5" ry="2.5"/><ellipse cx="201.61" cy="171.74" rx="11" ry="11" fill="#ADD1B2" style="stroke:#181818;stroke-width:1;"/><path d="M204.578,177.381 Q204,177.677 203.36,177.818 Q202.719,177.974 202.016,177.974 Q199.516,177.974 198.188,176.334 Q196.875,174.677 196.875,171.552 Q196.875,168.427 198.188,166.771 Q199.516,165.115 202.016,165.115 Q202.719,165.115 203.36,165.271 Q204.016,165.427 204.578,165.724 L204.578,168.443 Q203.953,167.865 203.36,167.599 Q202.766,167.318 202.141,167.318 Q200.797,167.318 200.11,168.396 Q199.422,169.459 199.422,171.552 Q199.422,173.646 200.11,174.724 Q200.797,175.787 202.141,175.787 Q202.766,175.787 203.36,175.521 Q203.953,175.24 204.578,174.662 L204.578,177.381 Z " fill="#000"/><text x="221.745" y="176.587" fill="#000" font-size="14" textLength="23.844">Cat</text><line x1="160" y1="187.74" x2="275.198" y2="187.74" style="stroke:#181818;stroke-width:0.5;"/><g data-visibility-modifier="PUBLIC_FIELD"><ellipse cx="170" cy="201.388" rx="3" ry="3" fill="none" style="stroke:#038048;stroke-width:1;"/></g><text x="179" y="204.735" fill="#000" font-size="14" textLength="83.829">color: string</text><line x1="160" y1="212.037" x2="275.198" y2="212.037" style="stroke:#181818;stroke-width:0.5;"/><g data-visibility-modifier="PUBLIC_METHOD"><ellipse cx="170" cy="225.685" rx="3" ry="3" fill="#84BE84" style="stroke:#038048;stroke-width:1;"/></g><text x="179" y="229.032" fill="#000" font-size="14" textLength="91.198">speak(): void</text></g><!--class Flyable--><g class="entity" data-qualified-name="Flyable" id="ent0006" data-source-line="16"><rect x="325.19" y="15.14" width="92.821" height="64.297" fill="#F1F1F1" style="stroke:#181818;stroke-width:0.5;" rx="2.5" ry="2.5"/><ellipse cx="344.971" cy="31.14" rx="11" ry="11" fill="#B4A7E5" style="stroke:#181818;stroke-width:1;"/><path d="M340.893,26.906 L340.893,24.749 L348.284,24.749 L348.284,26.906 L345.815,26.906 L345.815,34.984 L348.284,34.984 L348.284,37.14 L340.893,37.14 L340.893,34.984 L343.362,34.984 L343.362,26.906 L340.893,26.906 Z " fill="#000"/><text x="360.034" y="35.987" fill="#000" font-size="14" textLength="50.196" font-style="italic">Flyable</text><line x1="326.19" y1="47.14" x2="417.011" y2="47.14" style="stroke:#181818;stroke-width:0.5;"/><line x1="326.19" y1="55.14" x2="417.011" y2="55.14" style="stroke:#181818;stroke-width:0.5;"/><g data-visibility-modifier="PUBLIC_METHOD"><ellipse cx="336.19" cy="68.788" rx="3" ry="3" fill="#84BE84" style="stroke:#038048;stroke-width:1;"/></g><text x="345.19" y="72.135" fill="#000" font-size="14" textLength="66.821">fly(): void</text></g><!--class Bird--><g class="entity" data-qualified-name="Bird" id="ent0007" data-source-line="20"><rect x="311.52" y="147.59" width="120.151" height="96.891" fill="#F1F1F1" style="stroke:#181818;stroke-width:0.5;" rx="2.5" ry="2.5"/><ellipse cx="353.527" cy="163.59" rx="11" ry="11" fill="#ADD1B2" style="stroke:#181818;stroke-width:1;"/><path d="M356.495,169.231 Q355.917,169.528 355.277,169.668 Q354.636,169.824 353.933,169.824 Q351.433,169.824 350.105,168.184 Q348.792,166.528 348.792,163.403 Q348.792,160.278 350.105,158.621 Q351.433,156.965 353.933,156.965 Q354.636,156.965 355.277,157.121 Q355.933,157.278 356.495,157.574 L356.495,160.293 Q355.87,159.715 355.277,159.449 Q354.683,159.168 354.058,159.168 Q352.714,159.168 352.027,160.246 Q351.339,161.309 351.339,163.403 Q351.339,165.496 352.027,166.574 Q352.714,167.637 354.058,167.637 Q354.683,167.637 355.277,167.371 Q355.87,167.09 356.495,166.512 L356.495,169.231 Z " fill="#000"/><text x="373.528" y="168.437" fill="#000" font-size="14" textLength="28.137">Bird</text><line x1="312.52" y1="179.59" x2="430.671" y2="179.59" style="stroke:#181818;stroke-width:0.5;"/><g data-visibility-modifier="PUBLIC_FIELD"><ellipse cx="322.52" cy="193.238" rx="3" ry="3" fill="none" style="stroke:#038048;stroke-width:1;"/></g><text x="331.52" y="196.585" fill="#000" font-size="14" textLength="94.151">wingspan: int</text><line x1="312.52" y1="203.887" x2="430.671" y2="203.887" style="stroke:#181818;stroke-width:0.5;"/><g data-visibility-modifier="PUBLIC_METHOD"><ellipse cx="322.52" cy="217.535" rx="3" ry="3" fill="#84BE84" style="stroke:#038048;stroke-width:1;"/></g><text x="331.52" y="220.882" fill="#000" font-size="14" textLength="91.198">speak(): void</text><g data-visibility-modifier="PUBLIC_METHOD"><ellipse cx="322.52" cy="233.832" rx="3" ry="3" fill="#84BE84" style="stroke:#038048;stroke-width:1;"/></g><text x="331.52" y="237.179" fill="#000" font-size="14" textLength="66.821">fly(): void</text></g><!--reverse link Animal to Dog--><g class="link" data-entity-1="ent0001" data-entity-2="ent0002" id="lnk3" data-source-line="7" data-link-type="extension"><path d="M163.52,100.501 C141.89,121.381 128.4,134.41 106.77,155.29" style="stroke:#181818;stroke-width:1;" fill="none" id="Animal-backto-Dog"/><polygon points="176.47,88,159.352,96.185,167.687,104.818,176.47,88" fill="none" style="stroke:#181818;stroke-width:1;stroke-linejoin:miter;stroke-miterlimit:10;"/></g><!--reverse link Animal to Cat--><g class="link" data-entity-1="ent0001" data-entity-2="ent0004" id="lnk5" data-source-line="12" data-link-type="extension"><path d="M217.6,106 C217.6,126.88 217.6,134.41 217.6,155.29" style="stroke:#181818;stroke-width:1;" fill="none" id="Animal-backto-Cat"/><polygon points="217.6,88,211.6,106,223.6,106,217.6,88" fill="none" style="stroke:#181818;stroke-width:1;stroke-linejoin:miter;stroke-miterlimit:10;"/></g><!--reverse link Animal to Bird--><g class="link" data-entity-1="ent0001" data-entity-2="ent0007" id="lnk8" data-source-line="21" data-link-type="extension"><path d="M272.304,100.415 C291.464,118.665 301.3,128.05 321.39,147.19" style="stroke:#181818;stroke-width:1;" fill="none" id="Animal-backto-Bird"/><polygon points="259.27,88,268.165,104.759,276.442,96.07,259.27,88" fill="none" style="stroke:#181818;stroke-width:1;stroke-linejoin:miter;stroke-miterlimit:10;"/></g><!--reverse link Flyable to Bird--><g class="link" data-entity-1="ent0006" data-entity-2="ent0007" id="lnk9" data-source-line="21" data-link-type="extension"><path d="M371.6,97.77 C371.6,117.39 371.6,125.03 371.6,147.14" style="stroke:#181818;stroke-width:1;stroke-dasharray:7,7;" fill="none" id="Flyable-backto-Bird"/><polygon points="371.6,79.77,365.6,97.77,377.6,97.77,371.6,79.77" fill="none" style="stroke:#181818;stroke-width:1;stroke-linejoin:miter;stroke-miterlimit:10;"/></g><?plantuml-src XSqx3i8m383XFQVm2EeDkl4Gzt0Jjufmd2Y9WAhgtHln64Yfy6ZPtuzToX5r1isO4Xp4EcIO59Hf11srK0wi3C_DXE_p6PeK2A-xVGitRusQbNe9Ppy0FJA9gRKk4falRiiuOTumj6SV_nXMCiKUDS65H-oOFiyzZ-lMqKPJnwmBJ8uafvgubsmAA2sKog_-EhG0?></g></svg>