<svg xmlns="http://www.w3.org/2000/svg" xmlns:xlink="http://www.w3.org/1999/xlink" version="1.1" data-diagram-type="DESCRIPTION" style="width:174px;height:323px;background:#FFFFFF;" width="174px" height="323px" viewBox="0 0 174 323" zoomAndPan="magnify" preserveAspectRatio="none" contentStyleType="text/css"><?plantuml 1.2026.9beta4?><defs/><g font-family="sans-serif" lengthAdjust="spacing"><!--entity Web--><g class="entity" data-qualified-name="Web" id="ent0001" data-source-line="1"><rect x="7" y="7" width="153.189" height="46.297" fill="#F1F1F1" style="stroke:#181818;stroke-width:0.5;" rx="2.5" ry="2.5"/><rect x="140.189" y="12" width="15" height="10" fill="#F1F1F1" style="stroke:#181818;stroke-width:0.5;"/><rect x="138.189" y="14" width="4" height="2" fill="#F1F1F1" style="stroke:#181818;stroke-width:0.5;"/><rect x="138.189" y="18" width="4" height="2" fill="#F1F1F1" style="stroke:#181818;stroke-width:0.5;"/><text x="22" y="39.995" fill="#000" font-size="14" textLength="113.189">Веб-интерфейс</text></g><!--entity API--><g class="entity" data-qualified-name="API" id="ent0002" data-source-line="2"><rect x="24.13" y="130.3" width="118.921" height="46.297" fill="#F1F1F1" style="stroke:#181818;stroke-width:0.5;" rx="2.5" ry="2.5"/><rect x="123.051" y="135.3" width="15" height="10" fill="#F1F1F1" style="stroke:#181818;stroke-width:0.5;"/><rect x="121.051" y="137.3" width="4" height="2" fill="#F1F1F1" style="stroke:#181818;stroke-width:0.5;"/><rect x="121.051" y="141.3" width="4" height="2" fill="#F1F1F1" style="stroke:#181818;stroke-width:0.5;"/><text x="39.13" y="163.295" fill="#000" font-size="14" textLength="78.921">Сервис API</text></g><!--entity DB--><g class="entity" data-qualified-name="DB" id="ent0003" data-source-line="3"><path d="M26.31,263.59 C26.31,253.59 83.591,253.59 83.591,253.59 C83.591,253.59 140.872,253.59 140.872,263.59 L140.872,288.887 C140.872,298.887 83.591,298.887 83.591,298.887 C83.591,298.887 26.31,298.887 26.31,288.887 L26.31,263.59" style="stroke:#181818;stroke-width:0.5;" fill="#F1F1F1"/><path d="M26.31,263.59 C26.31,273.59 83.591,273.59 83.591,273.59 C83.591,273.59 140.872,273.59 140.872,263.59" style="stroke:#181818;stroke-width:0.5;" fill="none"/><text x="36.31" y="290.585" fill="#000" font-size="14" textLength="94.562">База данных</text></g><!--link Web to API--><g class="link" data-entity-1="ent0001" data-entity-2="ent0002" id="lnk4" data-source-line="5" data-link-type="dependency"><path d="M83.59,53.68 C83.59,75.47 83.59,103.29 83.59,125.03" style="stroke:#181818;stroke-width:1;" fill="none" id="Web-to-API"/><polygon points="83.59,130.03,87.59,121.03,83.59,125.03,79.59,121.03,83.59,130.03" fill="#181818" style="stroke:#181818;stroke-width:1;stroke-linejoin:miter;stroke-miterlimit:10;"/><text x="84.59" y="96.367" fill="#000" font-size="13" textLength="46.731">запрос</text></g><!--link API to DB--><g class="link" data-entity-1="ent0002" data-entity-2="ent0003" id="lnk5" data-source-line="6" data-link-type="dependency"><path d="M83.59,176.88 C83.59,198.72 83.59,226.68 83.59,248.33" style="stroke:#181818;stroke-width:1;" fill="none" id="API-to-DB"/><polygon points="83.59,253.33,87.59,244.33,83.59,248.33,79.59,244.33,83.59,253.33" fill="#181818" style="stroke:#181818;stroke-width:1;stroke-linejoin:miter;stroke-miterlimit:10;"/><text x="84.59" y="219.657" fill="#000" font-size="13" textLength="48.198">чтение</text></g><?plantuml-src IyxFBSZFIyqhKL2wCEd2rWiRTI_ikB3tOjE5hHSRBhO01NPUR5HII2nM24zDuaf6KhmGfEB2fWixBZOgE0PuWjK0QQwKn9B4fCJYLA2IYHSsNDX-OOF2XIr0nbwWgTqNMy7gN9ouk83cAUZgse7qA5WfWDHTs0yqSD_5HYwG44ZAnGaeSx4Tv1YWzXqNjW80?></g></svg>