<svg xmlns="http://www.w3.org/2000/svg" xmlns:xlink="http://www.w3.org/1999/xlink" version="1.1" data-diagram-type="DESCRIPTION" style="width:62px;height:295px;background:#FFFFFF;" width="62px" height="295px" viewBox="0 0 62 295" zoomAndPan="magnify" preserveAspectRatio="none" contentStyleType="text/css"><?plantuml 1.2026.9beta4?><defs/><g font-family="sans-serif" lengthAdjust="spacing"><!--entity Web--><g class="entity" data-qualified-name="Web" id="ent0001" data-source-line="1"><rect x="7" y="7" width="40" height="40" fill="#F1F1F1" style="stroke:#181818;stroke-width:0.5;" rx="2.5" ry="2.5"/><rect x="27" y="12" width="15" height="10" fill="#F1F1F1" style="stroke:#181818;stroke-width:0.5;"/><rect x="25" y="14" width="4" height="2" fill="#F1F1F1" style="stroke:#181818;stroke-width:0.5;"/><rect x="25" y="18" width="4" height="2" fill="#F1F1F1" style="stroke:#181818;stroke-width:0.5;"/><text x="22" y="27" fill="#000" font-size="14" textLength="0">Веб-интерфейс</text></g><!--entity API--><g class="entity" data-qualified-name="API" id="ent0002" data-source-line="2"><rect x="7" y="119" width="40" height="40" fill="#F1F1F1" style="stroke:#181818;stroke-width:0.5;" rx="2.5" ry="2.5"/><rect x="27" y="124" width="15" height="10" fill="#F1F1F1" style="stroke:#181818;stroke-width:0.5;"/><rect x="25" y="126" width="4" height="2" fill="#F1F1F1" style="stroke:#181818;stroke-width:0.5;"/><rect x="25" y="130" width="4" height="2" fill="#F1F1F1" style="stroke:#181818;stroke-width:0.5;"/><text x="22" y="139" fill="#000" font-size="14" textLength="0">Сервис API</text></g><!--entity DB--><g class="entity" data-qualified-name="DB" id="ent0003" data-source-line="3"><path d="M17,241 C17,231 27,231 27,231 C27,231 37,231 37,241 L37,260 C37,270 27,270 27,270 C27,270 17,270 17,260 L17,241" style="stroke:#181818;stroke-width:0.5;" fill="#F1F1F1"/><path d="M17,241 C17,251 27,251 27,251 C27,251 37,251 37,241" style="stroke:#181818;stroke-width:0.5;" fill="none"/><text x="27" y="255" fill="#000" font-size="14" textLength="0">База данных</text></g><!--link Web to API--><g class="link" data-entity-1="ent0001" data-entity-2="ent0002" id="lnk4" data-source-line="5" data-link-type="dependency"><path d="M27,47.41 C27,67.52 27,93.75 27,113.78" style="stroke:#181818;stroke-width:1;" fill="none" id="Web-to-API"/><polygon points="27,118.78,31,109.78,27,113.78,23,109.78,27,118.78" fill="#181818" style="stroke:#181818;stroke-width:1;stroke-linejoin:miter;stroke-miterlimit:10;"/><text x="28" y="78" fill="#000" font-size="13" textLength="0">запрос</text></g><!--link API to DB--><g class="link" data-entity-1="ent0002" data-entity-2="ent0003" id="lnk5" data-source-line="6" data-link-type="dependency"><path d="M27,159.32 C27,179.46 27,205.81 27,225.73" style="stroke:#181818;stroke-width:1;" fill="none" id="API-to-DB"/><polygon points="27,230.73,31,221.73,27,225.73,23,221.73,27,230.73" fill="#181818" style="stroke:#181818;stroke-width:1;stroke-linejoin:miter;stroke-miterlimit:10;"/><text x="28" y="190" fill="#000" font-size="13" textLength="0">чтение</text></g><?plantuml-src IyxFBSZFIyqhKL2wCEd2rWiRTI_ikB3tOjE5hHSRBhO01NPUR5HII2nM24zDuaf6KhmGfEB2fWixBZOgE0PuWjK0QQwKn9B4fCJYLA2IYHSsNDX-OOF2XIr0nbwWgTqNMy7gN9ouk83cAUZgse7qA5WfWDHTs0yqSD_5HYwG44ZAnGaeSx4Tv1YWzXqNjW80?></g></svg>