<svg xmlns="http://www.w3.org/2000/svg" xmlns:xlink="http://www.w3.org/1999/xlink" version="1.1" data-diagram-type="MINDMAP" style="width:387px;height:246px;background:#FFFFFF;" width="387px" height="246px" viewBox="0 0 387 246" zoomAndPan="magnify" preserveAspectRatio="none" contentStyleType="text/css"><?plantuml 1.2026.9beta4?><defs/><g font-family="sans-serif" lengthAdjust="spacing"><rect x="10" y="104.445" width="68.453" height="36.297" fill="#F1F1F1" style="stroke:#181818;stroke-width:1.5;" rx="12.5" ry="12.5"/><text x="20" y="127.44" fill="#000" font-size="14" textLength="48.453">Project</text><rect x="128.453" y="48.148" width="80.307" height="36.297" fill="#F1F1F1" style="stroke:#181818;stroke-width:1.5;" rx="12.5" ry="12.5"/><text x="138.453" y="71.144" fill="#000" font-size="14" textLength="60.307">Planning</text><rect x="258.76" y="20" width="79.958" height="36.297" fill="#F1F1F1" style="stroke:#181818;stroke-width:1.5;" rx="12.5" ry="12.5"/><text x="268.76" y="42.995" fill="#000" font-size="14" textLength="59.958">Timeline</text><path d="M208.76,66.297 L218.76,66.297 C233.76,66.297 233.76,38.148 248.76,38.148 L258.76,38.148" style="stroke:#181818;stroke-width:1;" fill="none"/><rect x="258.76" y="76.297" width="70.354" height="36.297" fill="#F1F1F1" style="stroke:#181818;stroke-width:1.5;" rx="12.5" ry="12.5"/><text x="268.76" y="99.292" fill="#000" font-size="14" textLength="50.354">Budget</text><path d="M208.76,66.297 L218.76,66.297 C233.76,66.297 233.76,94.445 248.76,94.445 L258.76,94.445" style="stroke:#181818;stroke-width:1;" fill="none"/><path d="M78.453,122.594 L88.453,122.594 C103.453,122.594 103.453,66.297 118.453,66.297 L128.453,66.297" style="stroke:#181818;stroke-width:1;" fill="none"/><rect x="128.453" y="160.742" width="131.166" height="36.297" fill="#F1F1F1" style="stroke:#181818;stroke-width:1.5;" rx="12.5" ry="12.5"/><text x="138.453" y="183.737" fill="#000" font-size="14" textLength="111.166">Implementation</text><rect x="309.619" y="132.594" width="55.841" height="36.297" fill="#F1F1F1" style="stroke:#181818;stroke-width:1.5;" rx="12.5" ry="12.5"/><text x="319.619" y="155.589" fill="#000" font-size="14" textLength="35.841">Code</text><path d="M259.619,178.891 L269.619,178.891 C284.619,178.891 284.619,150.742 299.619,150.742 L309.619,150.742" style="stroke:#181818;stroke-width:1;" fill="none"/><rect x="309.619" y="188.891" width="57.242" height="36.297" fill="#F1F1F1" style="stroke:#181818;stroke-width:1.5;" rx="12.5" ry="12.5"/><text x="319.619" y="211.886" fill="#000" font-size="14" textLength="37.242">Tests</text><path d="M259.619,178.891 L269.619,178.891 C284.619,178.891 284.619,207.039 299.619,207.039 L309.619,207.039" style="stroke:#181818;stroke-width:1;" fill="none"/><path d="M78.453,122.594 L88.453,122.594 C103.453,122.594 103.453,178.891 118.453,178.891 L128.453,178.891" style="stroke:#181818;stroke-width:1;" fill="none"/><?plantuml-src SoWkIImgoStCIybDBE3IKWWeoizAJIxXqW8oSnBpyZBpqe5iBOMGpDpKdCoyL337gJGbFHMinZEt82SrDpMl9B4aCpyFBEcSdm9H5P9QN5BCvP0AD1fgF9UXdf61aPcUPL9gIQ890000?></g></svg>